<svg width="573" height="702" viewBox="0 0 573 702" fill="none" xmlns="http://www.w3.org/2000/svg">
<path fill-rule="evenodd" clip-rule="evenodd" d="M288.569 3.62183C272.271 12.9347 273.047 21.4716 302.926 147.972C367.728 420.374 375.489 457.237 374.325 469.655C374.325 587 293.834 659.482 198 640.003C42.9947 608.497 41 454.133 73.208 419.986C105.416 385.839 130.249 387.003 183.411 409.121C236.96 431.239 266.839 430.851 294.389 407.569C328.537 378.854 328.925 329.961 295.553 294.65C273.047 270.98 266.451 276.412 280.808 305.903C292.837 331.125 294.389 358.676 284.688 373.421C262.182 407.569 195.44 402.912 166.337 364.885C157.024 352.855 155.86 347.811 155.86 322.2V293.486L142.667 295.814C107.743 301.246 61.1789 335.782 35.1804 374.586C-20.309 458.402 -9.44393 561.619 62.731 633.794C94.162 665.225 125.205 683.075 167.889 693.94C247.049 714.118 325.432 694.328 378.981 640.003C430.978 587.618 446.888 530.965 430.978 454.133C427.874 437.836 413.905 376.526 399.935 317.932C386.354 259.726 375.101 210.446 375.101 208.117C375.101 200.357 454.261 245.369 475.991 265.935C505.093 292.71 514.794 312.5 514.794 344.707C514.794 365.273 512.466 373.809 500.437 397.868C486.856 425.03 486.468 427.359 491.9 437.06C500.049 451.805 515.182 456.461 527.988 447.925C551.658 432.791 573 366.825 573 309.395C573 200.357 511.69 106.452 396.055 37.7691C339.79 4.3979 305.642 -6.46714 288.569 3.62183ZM495.393 201.909C474.827 165.045 429.038 123.137 375.877 92.0944C341.342 71.9164 341.342 71.9164 347.55 96.3627C349.879 103.735 352.983 116.929 355.311 125.466C358.803 138.659 361.908 142.151 373.937 146.42C400.711 156.12 464.35 189.104 484.528 203.849L504.705 218.206L495.393 201.909Z" fill="black"/>
</svg>
